<?xml version="1.0" encoding="iso-8859-1"?>
<!-- Generator: Adobe Illustrator 19.0.0, SVG Export Plug-In . SVG Version: 6.00 Build 0)  -->
<svg version="1.1" id="Capa_1" xmlns="http://www.w3.org/2000/svg" xmlns:xlink="http://www.w3.org/1999/xlink" x="0px" y="0px"
	 viewBox="0 0 480.004 480.004" style="enable-background:new 0 0 480.004 480.004;" xml:space="preserve">
<linearGradient id="SVGID_1_" gradientUnits="userSpaceOnUse" x1="-26.8747" y1="539.5533" x2="-26.8747" y2="600.0453" gradientTransform="matrix(8 0 0 -8 454.9997 4760.9849)">
	<stop  offset="0" style="stop-color:#006DF0"/>
	<stop  offset="1" style="stop-color:#00E7F0"/>
</linearGradient>
<path style="fill:url(#SVGID_1_);" d="M473.8,100.198c-4.305-0.996-8.602,1.686-9.598,5.99c-0.001,0.003-0.001,0.007-0.002,0.01
	l-30.824,133.6c-9.083,40.008-44.718,68.352-85.744,68.2H100.088L72.752,71.382c-2.343-20.168-19.424-35.382-39.728-35.384H8
	c-4.418,0-8,3.582-8,8s3.582,8,8,8h25.024c12.181-0.001,22.431,9.124,23.84,21.224L92.8,384.582
	c2.183,18.697,17.152,33.316,35.896,35.056c4.251,26.135,28.885,43.876,55.02,39.624c20.223-3.29,36.121-19.067,39.564-39.264h81.44
	c4.418,26.139,29.19,43.747,55.329,39.329s43.747-29.19,39.329-55.329s-29.19-43.747-55.329-39.329
	c-20.143,3.405-35.924,19.186-39.329,39.329h-81.44c-4.423-26.107-29.172-43.685-55.278-39.263
	c-19.976,3.384-35.669,18.96-39.202,38.911c-10.64-1.639-18.872-10.186-20.112-20.88l-6.752-58.768h245.696
	c48.49,0.176,90.605-33.328,101.336-80.616l30.832-133.6C480.787,105.479,478.102,101.19,473.8,100.198L473.8,100.198z M352,379.998
	c17.673,0,32,14.327,32,32s-14.327,32-32,32s-32-14.327-32-32S334.327,379.998,352,379.998z M176,379.998c17.673,0,32,14.327,32,32
	s-14.327,32-32,32s-32-14.327-32-32S158.327,379.998,176,379.998z"/>
<linearGradient id="SVGID_2_" gradientUnits="userSpaceOnUse" x1="-24.875" y1="539.5533" x2="-24.875" y2="600.0453" gradientTransform="matrix(8 0 0 -8 454.9997 4760.9849)">
	<stop  offset="0" style="stop-color:#006DF0"/>
	<stop  offset="1" style="stop-color:#00E7F0"/>
</linearGradient>
<path style="fill:url(#SVGID_2_);" d="M250.336,273.646c3.12,3.128,8.186,3.135,11.314,0.014c0.005-0.005,0.01-0.01,0.014-0.014
	l90.504-90.496c3.126-3.126,3.126-8.194,0-11.32s-8.194-3.126-11.32,0L264,248.686V27.998c0-4.418-3.582-8-8-8c-4.418,0-8,3.582-8,8
	v220.688l-76.848-76.856c-3.126-3.126-8.194-3.126-11.32,0c-3.126,3.126-3.126,8.194,0,11.32l0,0L250.336,273.646z"/>
<g>
</g>
<g>
</g>
<g>
</g>
<g>
</g>
<g>
</g>
<g>
</g>
<g>
</g>
<g>
</g>
<g>
</g>
<g>
</g>
<g>
</g>
<g>
</g>
<g>
</g>
<g>
</g>
<g>
</g>
</svg>
